HIERARCHY
ROOT hip
{
	OFFSET 0.000000 0.000000 0.000000 
	CHANNELS 6 Xposition Yposition Zposition Xrotation Zrotation Yrotation
	JOINT abdomen
	{
		OFFSET 0.000000 3.402643 0.000000 
		CHANNELS 3 Xrotation Zrotation Yrotation
		JOINT chest
		{
			OFFSET 0.000000 8.438565 -0.680529 
			CHANNELS 3 Xrotation Zrotation Yrotation
			JOINT neck
			{
				OFFSET 0.000000 10.207942 -0.272212 
				CHANNELS 3 Xrotation Zrotation Yrotation
				JOINT head
				{
					OFFSET 0.000000 3.130431 0.000000 
					CHANNELS 3 Xrotation Zrotation Yrotation
					End Site
					{
						OFFSET 0.000000 3.130435 0.000000 
					}
				}
			}
			JOINT lCollar
			{
				OFFSET 3.470700 6.669187 -0.816635 
				CHANNELS 3 Yrotation Zrotation Xrotation
				JOINT lShldr
				{
					OFFSET 3.198488 0.000000 0.000000 
					CHANNELS 3 Zrotation Yrotation Xrotation
					JOINT lForeArm
					{
						OFFSET 10.139888 0.000000 0.000000 
						CHANNELS 3 Yrotation Zrotation Xrotation
						JOINT lHand
						{
							OFFSET 8.370511 0.000000 0.000000 
							CHANNELS 3 Zrotation Yrotation Xrotation
							End Site
							{
								OFFSET 4.083176 0.000000 0.000000 
							}
						}
					}
				}
			}
			JOINT rCollar
			{
				OFFSET -3.470700 6.669187 -0.816635 
				CHANNELS 3 Yrotation Zrotation Xrotation
				JOINT rShldr
				{
					OFFSET -3.198488 0.000000 0.000000 
					CHANNELS 3 Zrotation Yrotation Xrotation
					JOINT rForeArm
					{
						OFFSET -10.139888 0.000000 0.000000 
						CHANNELS 3 Yrotation Zrotation Xrotation
						JOINT rHand
						{
							OFFSET -8.370511 0.000000 0.000000 
							CHANNELS 3 Zrotation Yrotation Xrotation
							End Site
							{
								OFFSET -4.083176 0.000000 0.000000 
							}
						}
					}
				}
			}
		}
	}
	JOINT lThigh
	{
		OFFSET 5.308129 -1.633274 1.361059 
		CHANNELS 3 Xrotation Zrotation Yrotation
		JOINT lShin
		{
			OFFSET -2.041588 -20.007561 0.000000 
			CHANNELS 3 Xrotation Zrotation Yrotation
			JOINT lFoot
			{
				OFFSET 0.000000 -19.190928 -1.224953 
				CHANNELS 3 Xrotation Yrotation Zrotation
				End Site
				{
					OFFSET 0.000000 -2.449906 4.627600 
				}
			}
		}
	}
	JOINT rThigh
	{
		OFFSET -5.308129 -1.633274 1.361059 
		CHANNELS 3 Xrotation Zrotation Yrotation
		JOINT rShin
		{
			OFFSET 2.041588 -20.007561 0.000000 
			CHANNELS 3 Xrotation Zrotation Yrotation
			JOINT rFoot
			{
				OFFSET 0.000000 -19.190928 -1.224953 
				CHANNELS 3 Xrotation Yrotation Zrotation
				End Site
				{
					OFFSET 0.000000 -2.449906 4.627600 
				}
			}
		}
	}
}
MOTION
Frames: 6
Frame Time: 0.033333
0.021484 37.660770 -2.213945 -2.775379 -4.979729 -0.990234 32.215572 -6.405390 -3.311849 5.019107 -0.166015 0.146484 21.325373 -17.686131 -6.777615 -39.200367 8.523789 57.950329 3.913504 5.344558 -0.391667 -57.004669 -11.858512 -56.370995 -115.399666 -2.900991 -62.303463 -8.011767 1.931091 -2.902576 -2.739900 -7.920966 -0.393193 77.458878 -26.714270 -16.681292 44.034813 0.845390 -0.934267 28.796606 4.531539 -1.303707 -24.784576 31.551704 2.057153 49.089565 -14.558582 3.031510 -21.750383 0.730763 -1.442189 -7.254029 -24.542820 -1.517640 26.712210 1.835813 5.204242 -13.388563 0.053817 0.017035 
0.003300 37.644161 -2.152409 -2.393468 -5.009537 -0.549050 31.768606 -6.246933 -3.684965 5.019107 -0.166015 0.146484 21.542933 -17.472786 -6.768762 -39.755470 8.326981 58.117760 3.696061 5.367439 -0.362656 -56.864803 -11.707960 -56.715561 -115.310722 -2.892846 -62.217560 -7.951312 2.545393 -2.905811 -2.122188 -7.918588 -0.305028 77.316071 -27.092573 -16.799198 44.040680 0.847283 -0.800608 28.526064 4.639127 -1.328958 -25.409906 31.425222 2.028584 49.252689 -14.229322 2.738378 -21.975061 0.743258 -1.422794 -7.392503 -24.470598 -1.517719 27.073874 1.894265 4.313973 -14.208909 0.043343 0.022919 
-0.014885 37.627552 -2.090874 -2.011131 -5.048817 -0.118452 31.320280 -6.098084 -4.057026 5.019107 -0.166015 0.146484 21.750792 -17.259438 -6.762920 -40.321327 8.131617 58.284744 3.469750 5.389566 -0.343337 -56.734592 -11.552108 -57.062496 -115.222023 -2.893305 -62.135780 -7.890563 3.158401 -2.916667 -1.494711 -7.914374 -0.216760 77.171165 -27.480888 -16.909351 44.036964 0.839558 -0.667238 28.265636 4.750757 -1.341988 -26.010767 31.293041 2.014756 49.394993 -13.887515 2.434954 -22.219152 0.731678 -1.440795 -7.536512 -24.395779 -1.515366 27.444187 1.958015 3.455026 -15.019462 0.042911 0.023081 
-0.064675 37.617508 -2.031924 -1.356920 -4.843276 0.802869 30.877886 -6.094675 -4.488419 5.019107 -0.166015 0.146484 21.077568 -17.084482 -6.470089 -40.089783 7.848669 57.947079 3.344330 5.644224 -0.343408 -56.804386 -11.845407 -56.943939 -115.126457 -2.888104 -62.019360 -8.052892 4.267377 -2.912828 -1.694005 -7.893247 -0.245747 76.842270 -27.706148 -16.556480 43.889359 0.833061 -0.626661 28.071243 4.707153 -1.368051 -26.933443 30.868822 1.962427 49.177975 -13.582541 1.896870 -22.209476 0.723735 -1.434484 -7.595834 -24.582035 -1.516256 27.564621 2.236032 2.095480 -15.654225 0.027975 0.059324 
-0.114462 37.607464 -1.972977 -0.695869 -4.656126 1.714441 30.437355 -6.100563 -4.930556 5.019107 -0.166015 0.146484 20.395393 -16.899206 -6.177314 -39.867088 7.567100 57.604752 3.218911 5.898882 -0.343471 -56.864052 -12.133812 -56.819565 -115.031136 -2.891423 -61.907516 -8.231829 5.375515 -2.915745 -1.891927 -7.872238 -0.265060 76.499611 -27.940971 -16.195194 43.731911 0.833203 -0.578912 27.887161 4.667713 -1.379844 -27.839516 30.436979 1.928096 48.975128 -13.253184 1.342471 -22.229109 0.689308 -1.444552 -7.665211 -24.762770 -1.545353 27.680754 2.504831 0.812109 -16.279255 -0.060268 0.077161 
-0.228349 37.640537 -1.919206 0.450130 -4.289435 3.377953 29.799637 -6.280071 -5.472944 5.019107 -0.166015 0.146484 19.312090 -16.514109 -5.706034 -39.142731 6.952475 56.690731 2.722258 6.498469 -0.324260 -56.991268 -12.610539 -56.363598 -114.861969 -2.890093 -61.863018 -8.487755 6.356678 -2.897596 -2.538681 -7.845905 -0.353269 76.277718 -28.227194 -15.717986 43.300449 0.833110 -0.504735 27.639416 4.522099 -1.407177 -29.140497 29.736147 1.856882 48.107758 -13.107022 0.491262 -21.906569 0.714072 -1.463538 -7.470145 -25.124750 -1.594053 27.138456 3.120616 -1.428991 -16.630842 -0.038108 0.034094 
